<svg width="93" height="58" viewBox="0 0 93 58" fill="none" xmlns="http://www.w3.org/2000/svg">
<path d="M63.9094 12.5864C63.9094 6.48387 56.4684 6.66705e-07 49.465 1.27695e-06L10.0578 4.71074e-06C4.50299 5.19477e-06 1.66565 4.18366 3.72043 9.34447L19.2225 48.2797C21.2773 53.4405 27.4461 57.6242 33.0009 57.6242L56.906 57.6242C61.115 57.6242 63.9094 55.1892 63.9094 51.5216L63.9094 12.5864Z" fill="#FEB611" fill-opacity="0.2"/>
<rect width="51.1276" height="62.0236" rx="10.0579" transform="matrix(1 8.74228e-08 -0.369909 0.929068 41.8723 0)" fill="#FEB611"/>
<rect width="28.1126" height="62.0236" rx="10.0579" transform="matrix(1 8.74228e-08 -0.369909 0.929068 41.8723 0)" fill="#FEB611"/>
</svg>
