<svg width="42" height="84" viewBox="0 0 42 84" fill="none" xmlns="http://www.w3.org/2000/svg">
<g opacity="0.2">
<path d="M35.7737 0.473995C34.4663 1.24209 32.2764 3.44831 29.6616 6.63508V6.83119L31.9496 11.0639L32.064 11.1456C33.7472 8.74326 35.4468 6.56972 37.1791 4.72302C37.3099 4.57594 37.3752 4.51057 37.3752 4.51057C37.3099 4.57594 37.2445 4.65765 37.1791 4.72302C36.6235 5.34403 34.9239 7.30512 32.3745 11.2273L32.6686 11.2927C32.6686 11.2927 38.6336 10.7043 41.5099 10.2141L41.6733 10.067C42.5885 4.93547 40.7745 2.58217 40.7745 2.58217C40.7745 2.58217 38.4865 -1.11122 35.7737 0.473995Z" fill="url(#paint0_linear)"/>
<path d="M25.0038 22.8303C25.7392 21.4739 26.4746 20.1338 27.21 18.8428C27.9781 17.5027 28.7626 16.1953 29.5633 14.9369C29.6124 14.8716 29.6614 14.7899 29.6941 14.7081C30.4785 13.4661 31.263 12.2895 32.0637 11.1455L29.6614 6.61865C29.4816 6.8311 29.3019 7.0599 29.1221 7.28869C28.4357 8.15484 27.7167 9.07001 26.9812 10.0506C26.1478 11.1618 25.298 12.3385 24.4318 13.5805C23.6311 14.7245 22.8139 15.9338 22.0132 17.1595C21.3268 18.2218 20.6241 19.3004 19.9377 20.428C19.905 20.477 19.8886 20.5097 19.856 20.5587V20.7385L22.8466 26.6708L22.9774 26.7198C23.6474 25.4124 24.3174 24.105 25.0038 22.8303Z" fill="url(#paint1_linear)"/>
<path d="M11.979 51.8707C12.5183 50.4652 13.0903 49.0434 13.6623 47.6053C14.2179 46.2325 14.7736 44.8434 15.3619 43.4543C15.9339 42.0652 16.5385 40.6761 17.1432 39.2707C17.7642 37.8489 18.3852 36.4271 19.0226 35.0216C19.6599 33.6325 20.2973 32.2434 20.951 30.8707C21.1798 30.3804 21.4249 29.8738 21.6701 29.3835C22.0786 28.5337 22.5035 27.6839 22.9121 26.8504C22.9284 26.8014 22.9611 26.7687 22.9775 26.7197L19.8561 20.5586C19.807 20.6403 19.758 20.722 19.709 20.8037C18.9899 21.9967 18.2545 23.2061 17.5518 24.4481C16.8327 25.7065 16.13 26.9812 15.4436 28.2722C14.8553 29.3672 14.2996 30.4621 13.744 31.5734C13.6296 31.8022 13.5315 32.0146 13.4171 32.2434C12.7308 33.6489 12.1261 34.9889 11.5705 36.2963C10.9494 37.7672 10.3938 39.1726 9.90353 40.5127C9.57668 41.3952 9.29886 42.2286 9.02104 43.0457C8.80859 43.7321 8.59614 44.4349 8.40003 45.1212C7.9261 46.7555 7.53388 48.3734 7.20703 50.0076L7.25606 50.2037L10.2467 56.1524L10.3448 56.2014C10.7533 55.0901 11.1782 53.9788 11.6195 52.8349C11.7339 52.508 11.8646 52.1975 11.979 51.8707Z" fill="url(#paint2_linear)"/>
<path d="M7.17417 50.2203C6.78195 52.1977 6.50413 54.1751 6.35705 56.1362C6.35705 56.2016 6.3407 56.267 6.3407 56.3487C5.36016 54.7798 2.74537 53.26 2.74537 53.26C4.62475 55.9728 6.04654 58.6693 6.25899 61.3168C5.2621 61.5292 3.88934 61.2187 2.28778 60.6467C3.93837 62.1666 5.18039 62.5915 5.67066 62.7059C4.15082 62.8039 2.5656 63.8498 0.964048 65.0428C3.30101 64.095 5.18039 63.7191 6.53681 64.0133C4.39596 70.0763 2.2551 76.7767 0.0979004 83.8693C0.751597 83.6732 1.14381 83.2319 1.37261 82.6273C1.74848 81.3362 4.2979 72.9035 8.26911 61.807C8.3835 61.4965 8.4979 61.1697 8.6123 60.8592C8.64498 60.7775 8.67767 60.6794 8.71035 60.5977C9.13525 59.4374 9.56016 58.2444 10.0177 57.0351C10.1158 56.7572 10.2302 56.4794 10.3283 56.2016V56.1852L7.20685 50.0078C7.20685 50.0895 7.19051 50.1549 7.17417 50.2203Z" fill="url(#paint3_linear)"/>
<path d="M32.3744 11.2433C31.6717 12.3219 30.9036 13.5476 30.0701 14.9367C30.0211 15.0021 29.9884 15.0838 29.9394 15.1492C29.2203 16.3585 28.4686 17.6659 27.6678 19.1204C26.9814 20.3624 26.2624 21.7025 25.5106 23.1569C24.8569 24.4153 24.1869 25.739 23.5005 27.1608L23.6476 27.2262L31.2468 26.4091L31.4266 26.2783C33.7308 25.2161 34.7604 24.2519 35.7573 22.8628C36.0188 22.4869 36.2966 22.0783 36.5581 21.6698C37.3752 20.3951 38.176 19.006 38.8787 17.6169C39.5651 16.2768 40.1697 14.9367 40.6437 13.7437C40.9378 12.9756 41.183 12.2729 41.3464 11.6519C41.4935 11.0962 41.6079 10.5733 41.6896 10.083C38.6172 10.6223 34.8421 11.1289 32.3744 11.2433Z" fill="url(#paint4_linear)"/>
<path d="M23.2063 27.7986C22.9448 28.3542 22.667 28.9262 22.3892 29.4982C22.095 30.1192 21.7845 30.7729 21.4904 31.4266C21.3433 31.7534 21.1799 32.0966 21.0328 32.4235C20.5588 33.4367 20.1013 34.4826 19.611 35.5612C19.0227 36.8849 18.418 38.274 17.8133 39.6958C17.225 41.0686 16.6367 42.474 16.0483 43.9449C15.4764 45.334 14.9044 46.7721 14.3324 48.2429C13.8094 49.5666 13.2865 50.9067 12.7635 52.3122C12.7308 52.3775 12.7145 52.4429 12.6818 52.5083C12.1588 53.8974 11.6488 55.3105 11.1095 56.765C11.0931 56.7977 11.0639 56.8827 11.0476 56.9154L11.1605 56.9405L13.4336 56.6959L13.5619 56.6429C13.5129 56.6266 13.4826 56.5612 13.4336 56.5449C16.4406 56.169 20.4444 53.9137 23.0429 51.1355C24.2359 49.8608 25.3145 48.341 26.3277 46.576C27.0795 45.2523 27.7659 43.7978 28.4359 42.1799C29.0242 40.7744 29.5799 39.2382 30.1192 37.5877C29.4328 37.9472 28.632 38.225 27.7659 38.4048C27.6188 38.4375 27.4553 38.4702 27.2919 38.5028C27.1285 38.5355 26.9651 38.5519 26.818 38.5845C29.6289 37.5059 31.3939 35.4141 32.6849 32.8647C31.9495 33.3713 30.7402 34.025 29.302 34.3519C29.1059 34.4009 28.9098 34.4336 28.6974 34.4663C28.6483 34.4663 28.5993 34.4826 28.5503 34.4826C29.5308 34.074 30.3479 33.6165 31.067 33.0772C31.2141 32.9628 31.3612 32.8484 31.5083 32.7176C31.7207 32.5215 31.9332 32.3254 32.1293 32.1293C32.26 31.9986 32.3744 31.8678 32.5051 31.7207C32.783 31.3939 33.0445 31.0344 33.2896 30.6421C33.3713 30.5277 33.4367 30.397 33.5184 30.2826C33.6164 30.1028 33.6981 29.9231 33.7799 29.7433C34.1721 28.9589 34.4826 28.2561 34.7277 27.6351C34.8585 27.3246 34.9565 27.0468 35.0546 26.769C35.0872 26.6709 35.1199 26.5565 35.169 26.4585C35.267 26.1643 35.3487 25.9028 35.4141 25.6577C35.5122 25.3145 35.5612 25.0367 35.5939 24.8406C35.4958 24.9223 35.3978 24.9877 35.267 25.0694C34.4172 25.576 32.9627 26.0336 31.7861 26.246L34.1067 25.9845L31.7861 26.246C31.6227 26.2787 31.5083 26.2951 31.3775 26.3277C31.3884 26.3168 28.7674 26.594 23.5146 27.1591C23.4819 27.1918 23.288 27.6024 23.2063 27.7986Z" fill="url(#paint5_linear)"/>
<path d="M10.8024 57.525C10.3938 58.6526 9.96891 59.8129 9.56035 60.9896C9.56035 61.0059 9.54401 61.0223 9.54401 61.0386C9.47864 61.202 9.42961 61.3654 9.36424 61.5452C9.08642 62.346 8.84129 63.0487 8.28564 64.683C9.20082 65.1079 9.93623 66.2028 10.639 67.4612C10.5736 66.1701 10.0343 64.9444 9.00471 64.0129C13.5316 64.209 17.4374 63.0651 19.4475 59.7639C19.6273 59.4697 19.7907 59.1592 19.9378 58.8324C19.0226 59.9927 17.8786 60.483 15.7541 60.3686H15.7378H15.7541C18.9082 58.9631 20.4771 57.6067 21.8825 55.3678C22.2094 54.8285 22.5362 54.2565 22.8631 53.6191C20.1012 56.4464 16.9144 57.2472 13.5642 56.6425L11.0475 56.9203C10.9658 57.1001 10.8841 57.3125 10.8024 57.525Z" fill="url(#paint6_linear)"/>
</g>
<defs>
<linearGradient id="paint0_linear" x1="31.6693" y1="7.24498" x2="49.0024" y2="1.47588" gradientUnits="userSpaceOnUse">
<stop stop-color="#F69923"/>
<stop offset="0.3123" stop-color="#F79A23"/>
<stop offset="0.8383" stop-color="#E97826"/>
</linearGradient>
<linearGradient id="paint1_linear" x1="-6.7144" y1="85.9523" x2="52.4893" y2="39.1225" gradientUnits="userSpaceOnUse">
<stop offset="0.3233" stop-color="#9E2064"/>
<stop offset="0.6302" stop-color="#C92037"/>
<stop offset="0.7514" stop-color="#CD2335"/>
<stop offset="1" stop-color="#E97826"/>
</linearGradient>
<linearGradient id="paint2_linear" x1="-5.41625" y1="81.3005" x2="52.2382" y2="57.0947" gradientUnits="userSpaceOnUse">
<stop offset="0.3233" stop-color="#9E2064"/>
<stop offset="0.6302" stop-color="#C92037"/>
<stop offset="0.7514" stop-color="#CD2335"/>
<stop offset="1" stop-color="#E97826"/>
</linearGradient>
<linearGradient id="paint3_linear" x1="-1.77587" y1="76.2032" x2="23.8687" y2="71.1831" gradientUnits="userSpaceOnUse">
<stop stop-color="#282662"/>
<stop offset="0.0954839" stop-color="#662E8D"/>
<stop offset="0.7882" stop-color="#9F2064"/>
<stop offset="0.9487" stop-color="#CD2032"/>
</linearGradient>
<linearGradient id="paint4_linear" x1="-0.105835" y1="89.5785" x2="32.1851" y2="11.6203" gradientUnits="userSpaceOnUse">
<stop offset="0.3233" stop-color="#9E2064"/>
<stop offset="0.6302" stop-color="#C92037"/>
<stop offset="0.7514" stop-color="#CD2335"/>
<stop offset="1" stop-color="#E97826"/>
</linearGradient>
<linearGradient id="paint5_linear" x1="2.48577" y1="85.094" x2="53.709" y2="20.7965" gradientUnits="userSpaceOnUse">
<stop offset="0.3233" stop-color="#9E2064"/>
<stop offset="0.6302" stop-color="#C92037"/>
<stop offset="0.7514" stop-color="#CD2335"/>
<stop offset="1" stop-color="#E97826"/>
</linearGradient>
<linearGradient id="paint6_linear" x1="5.27993" y1="80.2739" x2="24.768" y2="33.9213" gradientUnits="userSpaceOnUse">
<stop stop-color="#282662"/>
<stop offset="0.0954839" stop-color="#662E8D"/>
<stop offset="0.7882" stop-color="#9F2064"/>
<stop offset="0.9487" stop-color="#CD2032"/>
</linearGradient>
</defs>
</svg>
