<svg width="91" height="52" viewBox="0 0 91 52" fill="none" xmlns="http://www.w3.org/2000/svg">
<path d="M33.172 31.984C32.7987 32.8613 32.276 33.4867 31.604 33.86C30.932 34.2147 30.148 34.392 29.252 34.392C28.412 34.392 27.6187 34.2333 26.872 33.916C26.144 33.5987 25.5 33.132 24.94 32.516C24.38 31.9 23.932 31.1533 23.596 30.276C23.2787 29.3987 23.12 28.4 23.12 27.28V26.832C23.12 25.7307 23.2787 24.7413 23.596 23.864C23.9133 22.9867 24.3427 22.24 24.884 21.624C25.4253 21.008 26.0507 20.5413 26.76 20.224C27.488 19.888 28.2627 19.72 29.084 19.72C30.0733 19.72 30.8667 19.888 31.464 20.224C32.08 20.56 32.5653 21.0827 32.92 21.792H33.424V20.112H36.952V29.8C36.952 30.36 37.204 30.64 37.708 30.64H38.24V34H35.832C35.1973 34 34.6747 33.8133 34.264 33.44C33.872 33.0667 33.676 32.5813 33.676 31.984H33.172ZM30.036 31.032C31.0627 31.032 31.884 30.696 32.5 30.024C33.116 29.3333 33.424 28.4 33.424 27.224V26.888C33.424 25.712 33.116 24.788 32.5 24.116C31.884 23.4253 31.0627 23.08 30.036 23.08C29.0093 23.08 28.188 23.4253 27.572 24.116C26.956 24.788 26.648 25.712 26.648 26.888V27.224C26.648 28.4 26.956 29.3333 27.572 30.024C28.188 30.696 29.0093 31.032 30.036 31.032ZM44.1285 39.6H40.6005V20.112H44.1285V22.128H44.6325C45.0059 21.3627 45.5472 20.7747 46.2565 20.364C46.9659 19.9347 47.8712 19.72 48.9725 19.72C49.7939 19.72 50.5685 19.8787 51.2965 20.196C52.0432 20.5133 52.6872 20.98 53.2285 21.596C53.7885 22.1933 54.2272 22.9307 54.5445 23.808C54.8805 24.6853 55.0485 25.684 55.0485 26.804V27.308C55.0485 28.4467 54.8899 29.4547 54.5725 30.332C54.2552 31.2093 53.8259 31.956 53.2845 32.572C52.7432 33.1693 52.0992 33.6267 51.3525 33.944C50.6245 34.2427 49.8312 34.392 48.9725 34.392C48.3379 34.392 47.7872 34.3267 47.3205 34.196C46.8539 34.0653 46.4432 33.888 46.0885 33.664C45.7525 33.44 45.4632 33.188 45.2205 32.908C44.9965 32.6093 44.8005 32.3013 44.6325 31.984H44.1285V39.6ZM47.8245 31.032C48.9259 31.032 49.8125 30.696 50.4845 30.024C51.1752 29.3333 51.5205 28.4 51.5205 27.224V26.888C51.5205 25.712 51.1752 24.788 50.4845 24.116C49.8125 23.4253 48.9259 23.08 47.8245 23.08C46.7232 23.08 45.8272 23.4347 45.1365 24.144C44.4645 24.8347 44.1285 25.7493 44.1285 26.888V27.224C44.1285 28.3627 44.4645 29.2867 45.1365 29.996C45.8272 30.6867 46.7232 31.032 47.8245 31.032ZM58.7251 30.64H63.4291V23.472H59.0611V20.112H66.9571V30.64H70.9891V34H58.7251V30.64ZM67.8251 15.996C67.8251 16.3693 67.7504 16.724 67.6011 17.06C67.4704 17.3773 67.2837 17.6573 67.0411 17.9C66.7984 18.124 66.5091 18.3107 66.1731 18.46C65.8557 18.5907 65.5197 18.656 65.1651 18.656C64.7917 18.656 64.4464 18.5907 64.1291 18.46C63.8117 18.3107 63.5317 18.124 63.2891 17.9C63.0464 17.6573 62.8504 17.3773 62.7011 17.06C62.5704 16.724 62.5051 16.3693 62.5051 15.996C62.5051 15.6227 62.5704 15.2773 62.7011 14.96C62.8504 14.624 63.0464 14.344 63.2891 14.12C63.5317 13.8773 63.8117 13.6907 64.1291 13.56C64.4464 13.4107 64.7917 13.336 65.1651 13.336C65.5197 13.336 65.8557 13.4107 66.1731 13.56C66.5091 13.6907 66.7984 13.8773 67.0411 14.12C67.2837 14.344 67.4704 14.624 67.6011 14.96C67.7504 15.2773 67.8251 15.6227 67.8251 15.996Z" fill="#FEB611"/>
<path d="M11.592 19.2C11.592 22.3733 9.912 24.576 6.552 25.808V25.864C9.912 27.096 11.592 29.28 11.592 32.416V44.848C11.592 45.296 11.6293 45.6507 11.704 45.912C11.816 46.2107 12.1333 46.4907 12.656 46.752C13.1787 47.0507 13.9253 47.2 14.896 47.2H17.416V51.12H15.064C12.5627 51.12 10.6213 50.6347 9.24 49.664C7.896 48.6933 7.224 46.9387 7.224 44.4V32.584C7.224 31.9493 7.168 31.4453 7.056 31.072C6.98133 30.6613 6.75733 30.2133 6.384 29.728C5.6 28.7947 3.73333 28.1787 0.784 27.88V23.736C3.73333 23.4373 5.6 22.8213 6.384 21.888C6.75733 21.4027 6.98133 20.9733 7.056 20.6C7.168 20.1893 7.224 19.6667 7.224 19.032V7.216C7.224 4.67733 7.896 2.92267 9.24 1.952C10.6213 0.98133 12.5627 0.495996 15.064 0.495996H17.416V4.416H14.896C13.9253 4.416 13.1787 4.56533 12.656 4.864C12.1333 5.12533 11.816 5.40533 11.704 5.704C11.6293 5.96533 11.592 6.32 11.592 6.768V19.2Z" fill="#FEB611" fill-opacity="0.2"/>
<path d="M79.672 19.2V6.768C79.672 6.32 79.616 5.96533 79.504 5.704C79.4293 5.40533 79.1307 5.12533 78.608 4.864C78.0853 4.56533 77.3387 4.416 76.368 4.416H73.848V0.495996H76.2C78.7013 0.495996 80.624 0.98133 81.968 1.952C83.3493 2.92267 84.04 4.67733 84.04 7.216V19.032C84.04 19.6667 84.0773 20.1893 84.152 20.6C84.264 20.9733 84.5067 21.4027 84.88 21.888C85.664 22.8213 87.5307 23.4373 90.48 23.736V27.88C87.5307 28.1787 85.664 28.7947 84.88 29.728C84.5067 30.2133 84.264 30.6613 84.152 31.072C84.0773 31.4453 84.04 31.9493 84.04 32.584V44.4C84.04 46.9387 83.3493 48.6933 81.968 49.664C80.624 50.6347 78.7013 51.12 76.2 51.12H73.848V47.2H76.368C77.3387 47.2 78.0853 47.0507 78.608 46.752C79.1307 46.4907 79.4293 46.2107 79.504 45.912C79.616 45.6507 79.672 45.296 79.672 44.848V32.416C79.672 29.28 81.352 27.096 84.712 25.864V25.808C81.352 24.576 79.672 22.3733 79.672 19.2Z" fill="#FEB611" fill-opacity="0.2"/>
</svg>
