<svg width="134" height="20" viewBox="0 0 134 20" fill="none" xmlns="http://www.w3.org/2000/svg">
<path d="M18.7263 12.3238L17.7032 11.3008L16.4058 10.0034L17.7032 8.70595L18.7263 7.68292L19.5088 6.9004L20.2744 6.13482L17.0698 2.93021C15.2608 1.12127 12.7608 0 9.99999 0C4.47831 0 0 4.47832 0 9.99999C0 15.5217 4.47831 20 9.99999 20C12.7608 20 15.2608 18.8821 17.0732 17.0698L20.2778 13.8652L19.5122 13.0996L18.7263 12.3238ZM15.5284 15.5217C15.5251 15.5251 15.5251 15.5251 15.5217 15.5285C14.1091 16.9411 12.1545 17.8184 9.9966 17.8184C5.68089 17.8184 2.18495 14.3191 2.18495 10.0068C2.18495 5.69445 5.68427 2.19512 9.9966 2.19512C12.1545 2.19512 14.1057 3.0691 15.5217 4.4817C15.5284 4.48848 15.5352 4.49526 15.542 4.50203L17.1782 6.13821L16.9241 6.39227L14.9221 8.39431L14.8543 8.46205L13.3875 7.00203L13.2012 6.80216C12.3814 5.98238 11.25 5.47426 9.9966 5.47426C7.49322 5.47426 5.46408 7.50339 5.46408 10.0068C5.46408 12.2527 7.09688 14.1158 9.24119 14.4749C9.48509 14.5156 9.73915 14.5393 9.9966 14.5393C10.2913 14.5393 10.5826 14.5122 10.8638 14.4546C11.7683 14.2784 12.5745 13.8347 13.2012 13.2114L14.8577 11.5549L16.9241 13.6213L17.1782 13.8753L15.5284 15.5217ZM11.6531 11.6599C11.4295 11.8835 11.1619 12.063 10.8604 12.1816C10.5928 12.2866 10.3015 12.3476 9.99322 12.3476C9.72899 12.3476 9.47493 12.3035 9.2378 12.2222C8.313 11.9072 7.64904 11.0332 7.64904 10.0034C7.64904 8.70935 8.69918 7.65921 9.99322 7.65921C10.6402 7.65921 11.2263 7.92344 11.6497 8.34688L13.3062 10.0034L11.6531 11.6565V11.6599Z" fill="black"/>
<path d="M41.6025 0.473633C40.5083 0.473633 39.5835 1.39843 39.5835 2.4926C39.5835 3.62065 40.4914 4.53528 41.6025 4.53528C42.1411 4.53528 42.6526 4.32526 43.0388 3.93908C43.4283 3.5529 43.6452 3.03799 43.6452 2.4926C43.6452 1.97092 43.425 1.45263 43.0388 1.07322C42.6492 0.687044 42.1377 0.473633 41.6025 0.473633Z" fill="black"/>
<path d="M43.235 6.09863H39.9932V17.5045H43.235V6.09863Z" fill="black"/>
<path d="M34.9355 13.3001C34.092 14.0996 32.9843 14.5366 31.8224 14.5366C30.6131 14.5366 29.4714 14.0657 28.6178 13.2086C27.7607 12.3516 27.2899 11.2134 27.2899 10.004C27.2899 8.79469 27.7607 7.65309 28.6178 6.79943C29.4748 5.94238 30.6131 5.47151 31.8224 5.47151C32.9843 5.47151 34.092 5.91189 34.9355 6.71135L36.6869 8.4627L39.0006 6.13209L37.4626 4.60091C37.3813 4.51623 37.3 4.43492 37.2187 4.35701C36.9985 4.14698 36.7614 3.94713 36.5175 3.76081C35.1557 2.73439 33.5331 2.19238 31.8224 2.19238C30.7689 2.19238 29.7458 2.39902 28.7804 2.80553C27.8488 3.19848 27.0155 3.76081 26.2973 4.47897C25.5792 5.19713 25.0168 6.03045 24.6239 6.96203C24.2174 7.92747 24.0107 8.95051 24.0107 10.004C24.0107 11.0576 24.2174 12.0806 24.6239 13.046C25.0168 13.9776 25.5792 14.8109 26.2973 15.5291C27.0155 16.2473 27.8488 16.8096 28.7804 17.2025C29.7458 17.609 30.7689 17.8157 31.8224 17.8157C33.5297 17.8157 35.1557 17.2737 36.5175 16.2473C36.6395 16.1558 36.7614 16.0576 36.88 15.9593C36.9985 15.8577 37.1137 15.7561 37.2187 15.6544C37.3034 15.5765 37.3847 15.4918 37.466 15.4071L39.0107 13.8624L36.6835 11.5487L34.9355 13.3001Z" fill="black"/>
<path d="M56.8188 11.0504C56.7985 8.19806 54.5289 5.88437 51.6969 5.78952C51.6359 5.78614 51.5783 5.78613 51.5173 5.78613C50.1725 5.78613 48.9428 6.28749 48.0079 7.11405V6.09779H45.0234V17.5036H48.2179V15.2407V13.9941V12.8762V11.4636C48.2179 9.96296 49.434 8.74684 50.9347 8.74684C51.7341 8.74684 52.4523 9.09237 52.9503 9.64115C53.3907 10.1222 53.6583 10.7624 53.6583 11.4636L53.6549 15.3458V15.9352V17.5002H56.8155C56.8155 17.5002 56.8155 12.5002 56.8155 11.1181C56.8188 11.0978 56.8188 11.0741 56.8188 11.0504Z" fill="black"/>
<path d="M70.2676 11.0504C70.2472 8.19806 67.9776 5.88437 65.1456 5.78952C65.0846 5.78614 65.027 5.78613 64.9661 5.78613C63.6212 5.78613 62.3915 6.28749 61.4566 7.11405V6.09779H58.4722V17.5036H61.6666V15.2407V13.9941V12.8762V11.4636C61.6666 9.96296 62.8827 8.74684 64.3834 8.74684C65.1829 8.74684 65.901 9.09237 66.399 9.64115C66.8394 10.1222 67.107 10.7624 67.107 11.4636L67.1036 15.3458V15.9352V17.5002H70.2642C70.2642 17.5002 70.2642 12.5002 70.2642 11.1181C70.2676 11.0978 70.2676 11.0741 70.2676 11.0504Z" fill="black"/>
<path d="M107.11 11.1147C107.11 11.091 107.11 11.0707 107.11 11.0504C107.09 8.19806 104.821 5.88437 101.989 5.78952C101.961 5.78952 101.931 5.78613 101.904 5.78613C101.89 5.78613 101.877 5.78613 101.867 5.78613C101.85 5.78613 101.833 5.78613 101.816 5.78613C100.044 5.78613 98.4757 6.66012 97.517 7.99819C96.9716 7.23938 96.2331 6.62963 95.3727 6.24684C94.7629 5.97584 94.0956 5.81324 93.391 5.78952C93.33 5.78614 93.2724 5.78613 93.2114 5.78613C91.8666 5.78613 90.6369 6.28749 89.7019 7.11405V6.09779H86.7175V17.5036H89.912V15.2407V13.9941V12.8762V11.4636C89.912 9.96296 91.1281 8.74684 92.6288 8.74684C93.4282 8.74684 94.1464 9.09237 94.6444 9.64115C95.0847 10.1222 95.3523 10.7624 95.3523 11.4636L95.349 17.5002H98.5129V11.4636C98.5129 9.96296 99.7291 8.74684 101.23 8.74684C102.029 8.74684 102.747 9.09237 103.245 9.64115C103.686 10.1222 103.953 10.7624 103.953 11.4636L103.95 15.3458V15.9182V15.9352V17.5002H107.11C107.11 17.5002 107.11 12.5002 107.11 11.1181C107.11 11.1215 107.11 11.1181 107.11 11.1147Z" fill="black"/>
<path d="M129.986 15.9385V17.5036H133.147C133.147 17.5036 133.147 12.5036 133.147 11.1215C133.147 11.0944 133.147 11.0706 133.147 11.0469C133.127 8.19463 130.857 5.88095 128.025 5.7861C127.964 5.78271 127.906 5.78271 127.845 5.78271C126.501 5.78271 125.271 6.28406 124.336 7.11062V6.09436H121.352V17.5002H124.546V15.2373V13.9907V12.8728V11.4602C124.546 9.95954 125.762 8.74342 127.263 8.74342C128.062 8.74342 128.78 9.08894 129.278 9.63772C129.719 10.1187 129.986 10.759 129.986 11.4602L129.983 15.3423V15.9385H129.986Z" fill="black"/>
<path d="M114.279 5.78613C110.949 5.78613 108.245 8.486 108.245 11.8193C108.245 15.1493 110.945 17.8525 114.279 17.8525C117.612 17.8525 120.312 15.1527 120.312 11.8193C120.308 8.486 117.609 5.78613 114.279 5.78613ZM114.279 14.6208C112.73 14.6208 111.474 13.3641 111.474 11.8159C111.474 10.2678 112.73 9.01107 114.279 9.01107C115.827 9.01107 117.083 10.2678 117.083 11.8159C117.08 13.3641 115.827 14.6208 114.279 14.6208Z" fill="black"/>
<path d="M82.1107 6.13505V8.1608L81.9278 7.96093L81.5585 7.55782C80.7421 6.71432 79.7394 6.10795 78.6182 5.88098C78.608 5.8776 78.6012 5.8776 78.5911 5.87421C78.5707 5.87082 78.5504 5.86744 78.5335 5.86405C78.5064 5.86066 78.4793 5.85388 78.4522 5.8505C78.442 5.84711 78.4284 5.84711 78.4183 5.84373C78.3844 5.83695 78.3539 5.83356 78.3201 5.83017C78.3167 5.83017 78.3167 5.83017 78.3133 5.83017C78.2896 5.82678 78.2658 5.8234 78.2421 5.82001C78.2354 5.82001 78.2286 5.82001 78.2252 5.81662C78.2049 5.81323 78.1845 5.81324 78.1642 5.80985C78.1574 5.80985 78.1507 5.80984 78.1439 5.80646C78.1202 5.80307 78.0999 5.80307 78.0761 5.79969C78.0728 5.79969 78.0694 5.79969 78.0626 5.79969C78.0355 5.7963 78.0084 5.7963 77.9847 5.79291C77.9779 5.79291 77.9711 5.79291 77.9643 5.79291C77.944 5.79291 77.9237 5.78952 77.9034 5.78952C77.8932 5.78952 77.8865 5.78952 77.8763 5.78952C77.8594 5.78952 77.8424 5.78952 77.8221 5.78613C77.8119 5.78613 77.8017 5.78613 77.795 5.78613C77.778 5.78613 77.7577 5.78613 77.7408 5.78613C77.734 5.78613 77.7238 5.78613 77.7171 5.78613C77.69 5.78613 77.6629 5.78613 77.6358 5.78613C77.6154 5.78613 77.5917 5.78613 77.5714 5.78613C77.5579 5.78613 77.5443 5.78613 77.5308 5.78613C74.2008 5.78613 71.4976 8.486 71.4976 11.8193C71.4976 15.1493 74.1974 17.8525 77.5308 17.8525C77.5443 17.8525 77.5579 17.8525 77.5714 17.8525C77.5917 17.8525 77.6154 17.8525 77.6358 17.8525C77.6629 17.8525 77.69 17.8525 77.7171 17.8525C77.7238 17.8525 77.734 17.8525 77.7408 17.8525C77.7577 17.8525 77.778 17.8525 77.795 17.8525C77.8051 17.8525 77.8153 17.8525 77.8221 17.8525C77.839 17.8525 77.856 17.8525 77.8763 17.8491C77.8865 17.8491 77.8932 17.8491 77.9034 17.8491C77.9237 17.8491 77.944 17.8458 77.9643 17.8458C77.9711 17.8458 77.9779 17.8458 77.9847 17.8458C78.0118 17.8424 78.0389 17.8424 78.0626 17.839C78.066 17.839 78.0694 17.839 78.0761 17.839C78.0999 17.8356 78.1202 17.8356 78.1439 17.8322C78.1507 17.8322 78.1574 17.8322 78.1642 17.8288C78.1845 17.8254 78.2049 17.8254 78.2252 17.822C78.232 17.822 78.2387 17.822 78.2421 17.8187C78.2658 17.8153 78.2896 17.8119 78.3133 17.8085C78.3167 17.8085 78.3167 17.8085 78.3201 17.8085C78.3539 17.8051 78.3844 17.7983 78.4183 17.7949C78.4284 17.7916 78.442 17.7915 78.4522 17.7882C78.4793 17.7848 78.5064 17.778 78.5335 17.7746C78.5538 17.7712 78.5741 17.7678 78.5911 17.7645C78.6012 17.7611 78.608 17.7611 78.6182 17.7577C79.7394 17.5307 80.7421 16.9243 81.5585 16.0809L81.9278 15.6777L82.1107 15.4779V17.5036V17.5104H84.8546V17.5036V6.14183V6.10117H82.1107V6.13505ZM79.6209 13.8552C79.3261 14.1533 78.9671 14.3905 78.5673 14.5395C78.2489 14.6581 77.9068 14.7224 77.5477 14.7224C75.9657 14.7224 74.7157 13.4589 74.6785 11.8871C74.6785 11.8634 74.6785 11.8126 74.6785 11.8126C74.6785 10.2069 75.942 8.90267 77.5477 8.90267C77.9068 8.90267 78.2523 8.96703 78.5673 9.0856C78.9772 9.23804 79.3397 9.48193 79.6378 9.7902L81.6602 11.8126L79.6209 13.8552Z" fill="black"/>
</svg>
