<svg width="1365" height="219" viewBox="0 0 1365 219" fill="none" xmlns="http://www.w3.org/2000/svg">
<path d="M260.763 0C247.565 0 236.408 11.6538 236.408 25.4424C236.408 39.6576 247.359 51.1835 260.763 51.1835C267.26 51.1835 273.43 48.5372 278.09 43.6708C282.788 38.8039 285.404 32.3152 285.404 25.4424C285.404 18.8683 282.747 12.3371 278.09 7.55607C273.39 2.68922 267.22 0 260.763 0V0Z" fill="black"/>
<path d="M280.605 70.7573H241.493V214.489H280.605V70.7573Z" fill="black"/>
<path d="M443.942 133.282C443.696 97.3381 416.318 68.182 382.156 66.9868C381.421 66.9443 380.725 66.9438 379.991 66.9438C363.768 66.9438 348.934 73.2622 337.656 83.6783V70.8717H301.654V214.603H340.189V138.49C340.189 119.579 354.86 104.254 372.962 104.254C382.606 104.254 391.269 108.608 397.276 115.524C402.587 121.585 405.816 129.654 405.816 138.49L405.776 187.412V214.561H443.902V134.136C443.942 133.88 443.942 133.581 443.942 133.282V133.282Z" fill="black"/>
<path d="M606.631 133.282C606.385 97.3381 579.007 68.182 544.845 66.9868C544.11 66.9443 543.415 66.9438 542.68 66.9438C526.457 66.9438 511.623 73.2622 500.345 83.6783V70.8717H464.343V214.603H502.878V138.49C502.878 119.579 517.549 104.254 535.651 104.254C545.295 104.254 553.958 108.608 559.965 115.524C565.276 121.585 568.505 129.654 568.505 138.49L568.465 187.412V214.561H606.591V134.136C606.631 133.88 606.631 133.581 606.631 133.282V133.282Z" fill="black"/>
<path d="M1050.97 134.093V133.282C1050.73 97.3381 1023.35 68.182 989.188 66.9868C988.861 66.9868 988.492 66.9438 988.165 66.9438H987.102C965.731 66.9438 946.812 77.9578 935.248 94.8197C928.668 85.2576 919.76 77.5737 909.38 72.7497C902.026 69.3348 893.975 67.2855 885.475 66.9868C884.739 66.9443 884.045 66.9438 883.309 66.9438C867.087 66.9438 852.253 73.2622 840.976 83.6783V70.8717H804.974V214.603H843.509V138.49C843.509 119.579 858.178 104.254 876.281 104.254C885.925 104.254 894.589 108.608 900.596 115.524C905.907 121.585 909.136 129.654 909.136 138.49L909.094 214.561H947.262V138.49C947.262 119.579 961.93 104.254 980.034 104.254C989.678 104.254 998.34 108.608 1004.35 115.524C1009.66 121.585 1012.89 129.654 1012.89 138.49L1012.85 187.412V214.561H1050.97V134.136C1050.97 134.179 1050.97 134.136 1050.97 134.093V134.093Z" fill="black"/>
<path d="M1326.87 194.924V214.646H1365V133.282C1364.76 97.3381 1337.38 68.1816 1303.22 66.9863C1302.48 66.9438 1301.79 66.9438 1301.05 66.9438C1284.83 66.9438 1269.99 73.2617 1258.71 83.6778V70.8712H1222.71V214.604H1261.25V138.49C1261.25 119.579 1275.92 104.254 1294.02 104.254C1303.67 104.254 1312.33 108.608 1318.33 115.524C1323.65 121.585 1326.87 129.653 1326.87 138.49L1326.83 187.411V194.924H1326.87Z" fill="black"/>
<path d="M1137.04 66.9438C1096.87 66.9438 1064.26 100.967 1064.26 142.972C1064.26 184.935 1096.83 219 1137.04 219C1177.25 219 1209.82 184.978 1209.82 142.972C1209.78 100.967 1177.21 66.9438 1137.04 66.9438V66.9438ZM1137.04 178.276C1118.36 178.276 1103.2 162.438 1103.2 142.93C1103.2 123.421 1118.36 107.584 1137.04 107.584C1155.71 107.584 1170.87 123.421 1170.87 142.93C1170.83 162.438 1155.71 178.276 1137.04 178.276Z" fill="black"/>
<path d="M749.127 70.9141V96.869L746.92 94.3502L742.466 89.27C732.619 78.6406 720.522 70.9995 706.997 68.1395C706.874 68.0966 706.792 68.0966 706.67 68.0541C706.424 68.0112 706.179 67.9687 705.975 67.9258C705.648 67.8833 705.321 67.7979 704.994 67.755C704.871 67.7125 704.708 67.7125 704.585 67.6696C704.177 67.5846 703.808 67.5417 703.401 67.4992H703.318C703.034 67.4563 702.747 67.4138 702.461 67.3709C702.378 67.3709 702.297 67.3709 702.257 67.3284C702.011 67.2855 701.767 67.2855 701.521 67.243C701.438 67.243 701.358 67.243 701.275 67.2001C700.99 67.1576 700.744 67.1576 700.458 67.1146H700.294C699.968 67.0722 699.641 67.0722 699.355 67.0297H699.11C698.864 67.0297 698.62 66.9868 698.374 66.9868H698.048C697.843 66.9868 697.638 66.9868 697.394 66.9438H693.88C653.711 66.9438 621.102 100.967 621.102 142.972C621.102 184.935 653.67 219 693.88 219H697.394C697.597 219 697.803 219.002 698.048 218.958H698.374C698.62 218.958 698.864 218.916 699.11 218.916H699.355C699.681 218.872 700.008 218.872 700.294 218.83H700.458C700.744 218.788 700.99 218.788 701.275 218.744C701.358 218.744 701.438 218.744 701.521 218.702C701.767 218.66 702.011 218.66 702.257 218.616C702.338 218.616 702.42 218.616 702.461 218.574C702.747 218.532 703.034 218.488 703.318 218.446H703.401C703.808 218.404 704.177 218.318 704.585 218.276C704.708 218.232 704.871 218.232 704.994 218.19C705.321 218.148 705.648 218.062 705.975 218.02C706.221 217.976 706.465 217.933 706.67 217.891C706.792 217.848 706.874 217.848 706.997 217.806C720.522 214.945 732.619 207.304 742.466 196.676L746.92 191.595L749.127 189.076V214.689H782.226V70.9141H749.127V70.9141ZM696.231 106.035C716.518 106.035 732.989 122.507 732.989 142.796C732.989 163.085 716.518 179.557 696.231 179.557C675.943 179.557 659.472 163.085 659.472 142.796C659.472 122.507 675.943 106.035 696.231 106.035V106.035Z" fill="black"/>
<path fill-rule="evenodd" clip-rule="evenodd" d="M5.08447 142.892C19.7052 187.892 61.6377 218.359 108.951 218.359C156.264 218.359 198.196 187.892 212.817 142.892L168.154 128.379C159.821 154.029 135.919 171.396 108.951 171.396C81.9824 171.396 58.0808 154.029 49.7473 128.379L5.08447 142.892V142.892Z" fill="black"/>
<path fill-rule="evenodd" clip-rule="evenodd" d="M46.4772 111.008C46.5319 113.13 46.6951 115.268 46.9715 117.414L0.448038 120.668L0 114.259L46.4772 111.008V111.008Z" fill="black"/>
<path fill-rule="evenodd" clip-rule="evenodd" d="M47.7533 94.9318C47.2864 97.0122 46.9246 99.1251 46.6721 101.265L0.847412 93.1846L1.96309 86.8574L47.7533 94.9318V94.9318Z" fill="black"/>
<path fill-rule="evenodd" clip-rule="evenodd" d="M53.2701 79.7885C52.276 81.6821 51.377 83.6292 50.5785 85.6221L8.47437 65.9873L11.1891 60.1646L53.2701 79.7885Z" fill="black"/>
<path fill-rule="evenodd" clip-rule="evenodd" d="M63.372 66.2419C61.9198 67.8179 60.5496 69.4667 59.2648 71.1824L23.7251 41.359L27.8546 36.4375L63.372 66.2419Z" fill="black"/>
<path fill-rule="evenodd" clip-rule="evenodd" d="M75.8782 55.2979C74.0617 56.4456 72.3116 57.6829 70.6309 59.0044L44.0613 21.0566L49.3237 17.3716L75.8782 55.2979Z" fill="black"/>
<path fill-rule="evenodd" clip-rule="evenodd" d="M90.4948 48.9842C88.4317 49.6187 86.4174 50.3558 84.4604 51.1884L68.6348 7.70522L74.6713 5.50781L90.4948 48.9842V48.9842Z" fill="black"/>
<path fill-rule="evenodd" clip-rule="evenodd" d="M107.029 46.092C105.967 46.1307 104.897 46.1972 103.822 46.291C102.748 46.3852 101.681 46.5056 100.629 46.652L96.5962 0.559554L102.997 0L107.029 46.092V46.092Z" fill="black"/>
<path fill-rule="evenodd" clip-rule="evenodd" d="M116.933 46.4112L124.967 0.847656L131.294 1.96339L123.258 47.5341C121.184 47.0541 119.074 46.678 116.933 46.4112V46.4112Z" fill="black"/>
<path fill-rule="evenodd" clip-rule="evenodd" d="M132.186 50.4346L151.752 8.47363L157.574 11.1885L137.997 53.1739C136.114 52.1654 134.175 51.2504 132.186 50.4346V50.4346Z" fill="black"/>
<path fill-rule="evenodd" clip-rule="evenodd" d="M146.59 58.8221L176.393 23.3027L181.314 27.4321L151.493 62.9738C149.931 61.5084 148.294 60.1226 146.59 58.8221Z" fill="black"/>
<path fill-rule="evenodd" clip-rule="evenodd" d="M159.3 71.3003L197.793 45.335L201.385 50.6612L162.871 76.6413C161.771 74.7982 160.578 73.016 159.3 71.3003V71.3003Z" fill="black"/>
</svg>
