<svg width="19" height="19" viewBox="0 0 19 19" fill="none" xmlns="http://www.w3.org/2000/svg">
<path d="M2.7343 0.466185L9.4996 7.24346L16.2769 0.466185C16.8985 -0.155395 17.9122 -0.155395 18.5338 0.466185C19.1554 1.08776 19.1554 2.10154 18.5338 2.72312L11.7569 9.5L18.5338 16.2769C19.1554 16.8985 19.1554 17.9122 18.5338 18.5338C17.9122 19.1554 16.8985 19.1554 16.2769 18.5338L9.5 11.7569L2.72312 18.5338C2.10154 19.1554 1.08776 19.1554 0.466185 18.5338C-0.155395 17.9122 -0.155395 16.8985 0.466185 16.2769L7.24266 9.5004L0.477358 2.72312C-0.144221 2.10154 -0.144221 1.08776 0.477358 0.466185C1.09886 -0.155318 2.1127 -0.155165 2.7343 0.466185Z" fill="white"/>
</svg>
