<svg width="117" height="31" viewBox="0 0 117 31" fill="none" xmlns="http://www.w3.org/2000/svg">
<g opacity="0.15">
<path d="M0 7.40723H12.4322V8.39144H1.13962V15.799H11.7588V16.7832H1.13962V24.9159H12.5617V25.9001H0V7.40723Z" fill="white"/>
<path d="M17.9379 18.907L13.0686 12.5873H14.4413L18.6113 18.1559L22.8071 12.5873H24.0763L19.2588 18.907L24.5166 25.9001H23.1697L18.6113 19.6581L13.9492 25.9001H12.706L17.9379 18.907Z" fill="white"/>
<path d="M27.0376 15.6436H27.0894C27.193 15.3155 27.3657 14.9529 27.6074 14.5557C27.8492 14.1586 28.1686 13.796 28.5657 13.4679C28.9629 13.1226 29.4377 12.8377 29.9903 12.6132C30.5601 12.3887 31.2076 12.2765 31.9328 12.2765C32.9515 12.2765 33.8321 12.4664 34.5746 12.8463C35.3344 13.2262 35.956 13.7356 36.4395 14.3744C36.9402 15.0133 37.3114 15.7558 37.5532 16.6019C37.7949 17.448 37.9158 18.3372 37.9158 19.2696C37.9158 20.2884 37.7949 21.2208 37.5532 22.0669C37.3114 22.9129 36.9402 23.6468 36.4395 24.2684C35.956 24.8727 35.3344 25.3476 34.5746 25.6929C33.8321 26.0383 32.9515 26.2109 31.9328 26.2109C30.8277 26.2109 29.8435 25.9692 28.9801 25.4857C28.1168 25.0022 27.4865 24.2166 27.0894 23.1288H27.0376V30.6658H26.0534V12.5873H27.0376V15.6436ZM31.9328 25.3562C32.7961 25.3562 33.5386 25.1922 34.1602 24.8641C34.7991 24.536 35.3171 24.0957 35.7142 23.5432C36.1287 22.9906 36.4308 22.3518 36.6208 21.6266C36.828 20.8841 36.9316 20.0984 36.9316 19.2696C36.9316 18.5099 36.8366 17.7674 36.6467 17.0422C36.4567 16.2997 36.1632 15.6436 35.766 15.0738C35.3689 14.4867 34.8509 14.0205 34.212 13.6751C33.5904 13.3125 32.8307 13.1312 31.9328 13.1312C31.0522 13.1312 30.3011 13.3039 29.6795 13.6492C29.0578 13.9946 28.5485 14.4521 28.1513 15.0219C27.7715 15.5918 27.4952 16.2479 27.3225 16.9904C27.1498 17.7156 27.0635 18.4753 27.0635 19.2696C27.0635 20.0639 27.1412 20.8323 27.2966 21.5748C27.452 22.3 27.711 22.9475 28.0736 23.5173C28.4535 24.0698 28.9542 24.5188 29.5758 24.8641C30.2147 25.1922 31.0004 25.3562 31.9328 25.3562Z" fill="white"/>
<path d="M41.1964 15.54H41.2741C41.395 15.1083 41.6108 14.7025 41.9216 14.3226C42.2497 13.9428 42.6382 13.6147 43.0872 13.3384C43.5534 13.0622 44.0627 12.8549 44.6153 12.7168C45.1851 12.5614 45.7722 12.4923 46.3765 12.5096V13.4938C45.8585 13.4248 45.2628 13.4766 44.5894 13.6492C43.9332 13.8219 43.303 14.2018 42.6987 14.7888C42.4569 15.0478 42.2411 15.2982 42.0511 15.54C41.8785 15.7817 41.7317 16.0493 41.6108 16.3429C41.49 16.6364 41.395 16.9645 41.3259 17.3271C41.2569 17.6897 41.2137 18.1214 41.1964 18.6221V25.9001H40.2122V12.5873H41.1964V15.54Z" fill="white"/>
<path d="M47.5058 19.3732V19.5286C47.5058 20.3056 47.6094 21.0481 47.8166 21.7561C48.0238 22.464 48.326 23.0856 48.7231 23.6209C49.1375 24.1562 49.6469 24.5792 50.2513 24.89C50.8729 25.2008 51.5894 25.3562 52.401 25.3562C53.7305 25.3562 54.7838 25.0109 55.5608 24.3202C56.3379 23.6123 56.8731 22.6367 57.1667 21.3935H58.1509C57.8573 22.9475 57.2185 24.1389 56.2343 24.9677C55.2673 25.7965 53.9809 26.2109 52.3751 26.2109C51.3909 26.2109 50.5275 26.0383 49.7851 25.6929C49.0598 25.3303 48.4469 24.8468 47.9461 24.2425C47.4626 23.6209 47.1 22.8957 46.8583 22.0669C46.6166 21.2208 46.4957 20.3143 46.4957 19.3473C46.4957 18.4149 46.6166 17.5257 46.8583 16.6796C47.1173 15.8162 47.4972 15.0651 47.9979 14.4262C48.4987 13.7701 49.1203 13.2521 49.8628 12.8722C50.6225 12.4751 51.5117 12.2765 52.5305 12.2765C53.4629 12.2765 54.2831 12.4492 54.991 12.7945C55.7162 13.1399 56.3206 13.6147 56.8041 14.219C57.2875 14.8061 57.6501 15.4968 57.8919 16.2911C58.1509 17.0681 58.2804 17.9055 58.2804 18.8034C58.2804 18.8897 58.2718 18.9933 58.2545 19.1142C58.2545 19.2178 58.2545 19.3042 58.2545 19.3732H47.5058ZM57.2703 18.5185C57.2357 17.7933 57.1149 17.1112 56.9077 16.4724C56.7005 15.8162 56.3897 15.2464 55.9753 14.7629C55.5781 14.2622 55.086 13.8651 54.4989 13.5715C53.9291 13.278 53.273 13.1312 52.5305 13.1312C51.7362 13.1312 51.0369 13.2866 50.4326 13.5974C49.8282 13.891 49.3188 14.2881 48.9044 14.7888C48.49 15.2723 48.1706 15.8421 47.9461 16.4983C47.7216 17.1544 47.5835 17.8278 47.5317 18.5185H57.2703Z" fill="white"/>
<path d="M61.0143 21.4712C61.0488 22.0928 61.187 22.6453 61.4287 23.1288C61.6704 23.595 61.9812 24.0008 62.3611 24.3461C62.7583 24.6742 63.2158 24.9245 63.7338 25.0972C64.2519 25.2699 64.813 25.3562 65.4174 25.3562C65.849 25.3562 66.3066 25.3217 66.7901 25.2526C67.2908 25.1663 67.7484 25.0195 68.1628 24.8123C68.5945 24.6051 68.9485 24.3202 69.2247 23.9576C69.501 23.5777 69.6391 23.1029 69.6391 22.5331C69.6391 21.7906 69.4147 21.2294 68.9657 20.8495C68.5168 20.4697 67.947 20.1761 67.2563 19.9689C66.5829 19.7617 65.849 19.5977 65.0548 19.4768C64.2777 19.3387 63.5439 19.1401 62.8532 18.8811C62.1798 18.6221 61.6186 18.2595 61.1697 17.7933C60.7208 17.3098 60.4963 16.6105 60.4963 15.6954C60.4963 15.0392 60.6431 14.4953 60.9366 14.0636C61.2301 13.6147 61.6014 13.2607 62.0503 13.0017C62.5165 12.7427 63.0345 12.5614 63.6043 12.4578C64.1741 12.3369 64.744 12.2765 65.3138 12.2765C66.0044 12.2765 66.652 12.3542 67.2563 12.5096C67.8606 12.665 68.3786 12.9154 68.8103 13.2607C69.2593 13.6061 69.6046 14.0464 69.8463 14.5816C70.1053 15.1169 70.2348 15.7644 70.2348 16.5242H69.2506C69.2506 15.9198 69.147 15.4018 68.9398 14.9701C68.7499 14.5385 68.4736 14.1931 68.111 13.9341C67.7657 13.6579 67.3513 13.4593 66.8678 13.3384C66.3843 13.2003 65.8663 13.1312 65.3138 13.1312C64.8648 13.1312 64.4072 13.1744 63.941 13.2607C63.4921 13.3471 63.0863 13.4938 62.7237 13.701C62.3611 13.9082 62.0589 14.1759 61.8172 14.5039C61.5927 14.832 61.4805 15.2292 61.4805 15.6954C61.4805 16.2306 61.61 16.6623 61.869 16.9904C62.128 17.3185 62.4647 17.5861 62.8791 17.7933C63.3108 17.9832 63.7856 18.1386 64.3036 18.2595C64.8389 18.3804 65.3742 18.5012 65.9095 18.6221C66.5656 18.743 67.1786 18.8897 67.7484 19.0624C68.3355 19.2178 68.8362 19.4423 69.2506 19.7358C69.6823 20.0121 70.019 20.3747 70.2607 20.8236C70.5025 21.2726 70.6234 21.8424 70.6234 22.5331C70.6234 23.2583 70.4593 23.854 70.1312 24.3202C69.8032 24.7864 69.3888 25.1663 68.888 25.4598C68.3873 25.7361 67.8261 25.926 67.2045 26.0296C66.6002 26.1505 66.0044 26.2109 65.4174 26.2109C64.6576 26.2109 63.9497 26.1073 63.2935 25.9001C62.6547 25.7102 62.0935 25.4167 61.61 25.0195C61.1265 24.6051 60.7467 24.1044 60.4704 23.5173C60.1941 22.9302 60.0473 22.2482 60.0301 21.4712H61.0143Z" fill="white"/>
<path d="M73.4839 21.4712C73.5185 22.0928 73.6566 22.6453 73.8983 23.1288C74.1401 23.595 74.4509 24.0008 74.8308 24.3461C75.2279 24.6742 75.6855 24.9245 76.2035 25.0972C76.7215 25.2699 77.2827 25.3562 77.887 25.3562C78.3187 25.3562 78.7763 25.3217 79.2597 25.2526C79.7605 25.1663 80.218 25.0195 80.6325 24.8123C81.0641 24.6051 81.4181 24.3202 81.6944 23.9576C81.9706 23.5777 82.1088 23.1029 82.1088 22.5331C82.1088 21.7906 81.8843 21.2294 81.4354 20.8495C80.9864 20.4697 80.4166 20.1761 79.7259 19.9689C79.0525 19.7617 78.3187 19.5977 77.5244 19.4768C76.7474 19.3387 76.0135 19.1401 75.3229 18.8811C74.6495 18.6221 74.0883 18.2595 73.6393 17.7933C73.1904 17.3098 72.9659 16.6105 72.9659 15.6954C72.9659 15.0392 73.1127 14.4953 73.4062 14.0636C73.6998 13.6147 74.071 13.2607 74.52 13.0017C74.9862 12.7427 75.5042 12.5614 76.074 12.4578C76.6438 12.3369 77.2136 12.2765 77.7834 12.2765C78.4741 12.2765 79.1216 12.3542 79.7259 12.5096C80.3303 12.665 80.8483 12.9154 81.28 13.2607C81.7289 13.6061 82.0742 14.0464 82.316 14.5816C82.575 15.1169 82.7045 15.7644 82.7045 16.5242H81.7203C81.7203 15.9198 81.6167 15.4018 81.4095 14.9701C81.2195 14.5385 80.9433 14.1931 80.5807 13.9341C80.2353 13.6579 79.8209 13.4593 79.3374 13.3384C78.854 13.2003 78.3359 13.1312 77.7834 13.1312C77.3345 13.1312 76.8769 13.1744 76.4107 13.2607C75.9617 13.3471 75.556 13.4938 75.1934 13.701C74.8308 13.9082 74.5286 14.1759 74.2868 14.5039C74.0624 14.832 73.9501 15.2292 73.9501 15.6954C73.9501 16.2306 74.0796 16.6623 74.3386 16.9904C74.5977 17.3185 74.9344 17.5861 75.3488 17.7933C75.7804 17.9832 76.2553 18.1386 76.7733 18.2595C77.3086 18.3804 77.8438 18.5012 78.3791 18.6221C79.0353 18.743 79.6482 18.8897 80.218 19.0624C80.8051 19.2178 81.3059 19.4423 81.7203 19.7358C82.1519 20.0121 82.4886 20.3747 82.7304 20.8236C82.9721 21.2726 83.093 21.8424 83.093 22.5331C83.093 23.2583 82.929 23.854 82.6009 24.3202C82.2728 24.7864 81.8584 25.1663 81.3577 25.4598C80.8569 25.7361 80.2957 25.926 79.6741 26.0296C79.0698 26.1505 78.4741 26.2109 77.887 26.2109C77.1273 26.2109 76.4193 26.1073 75.7632 25.9001C75.1243 25.7102 74.5631 25.4167 74.0797 25.0195C73.5962 24.6051 73.2163 24.1044 72.94 23.5173C72.6638 22.9302 72.517 22.2482 72.4997 21.4712H73.4839Z" fill="white"/>
<rect x="86.8098" width="29.2787" height="29.2787" fill="#F8DF20"/>
<path d="M99.3548 12.7655H102.242V21.0051C102.242 21.7694 102.063 22.4513 101.705 23.0506C101.354 23.6499 100.859 24.1146 100.221 24.4445C99.5885 24.7744 98.8819 24.9394 98.1011 24.9394C96.7925 24.9394 95.7752 24.6094 95.0494 23.9496C94.3236 23.2898 93.9607 22.355 93.9607 21.1453H96.8639C96.8639 21.6952 96.9574 22.0938 97.1444 22.3413C97.3368 22.5887 97.6557 22.7124 98.1011 22.7124C98.5025 22.7124 98.8104 22.564 99.0249 22.2671C99.2448 21.9646 99.3548 21.544 99.3548 21.0051V12.7655Z" fill="black"/>
<path d="M110.267 21.5825C110.267 21.1591 110.115 20.8292 109.813 20.5927C109.516 20.3563 108.991 20.1116 108.238 19.8587C107.484 19.6058 106.869 19.3611 106.39 19.1246C104.834 18.3603 104.056 17.3101 104.056 15.974C104.056 15.3086 104.248 14.723 104.633 14.2172C105.024 13.7058 105.574 13.3099 106.283 13.0295C106.992 12.7435 107.79 12.6006 108.675 12.6006C109.538 12.6006 110.311 12.7545 110.992 13.0625C111.68 13.3704 112.213 13.8103 112.593 14.3821C112.972 14.9485 113.162 15.5973 113.162 16.3286H110.275C110.275 15.8392 110.124 15.4598 109.821 15.1904C109.524 14.921 109.12 14.7863 108.609 14.7863C108.092 14.7863 107.682 14.9017 107.38 15.1327C107.083 15.3581 106.935 15.6468 106.935 15.9987C106.935 16.3066 107.1 16.587 107.429 16.84C107.759 17.0874 108.339 17.3458 109.17 17.6153C110 17.8792 110.682 18.1651 111.215 18.473C112.513 19.2209 113.162 20.2518 113.162 21.566C113.162 22.6162 112.766 23.441 111.974 24.0403C111.182 24.6397 110.096 24.9394 108.716 24.9394C107.743 24.9394 106.86 24.7661 106.069 24.4197C105.282 24.0678 104.688 23.5895 104.287 22.9846C103.891 22.3743 103.693 21.6732 103.693 20.8814H106.596C106.596 21.5247 106.761 22.0004 107.091 22.3083C107.427 22.6107 107.968 22.7619 108.716 22.7619C109.194 22.7619 109.571 22.6602 109.846 22.4568C110.126 22.2478 110.267 21.9564 110.267 21.5825Z" fill="black"/>
</g>
</svg>
