<svg width="60" height="69" viewBox="0 0 60 69" fill="none" xmlns="http://www.w3.org/2000/svg">
<g opacity="0.15">
<path d="M0.465516 51.1555C0.77379 51.6921 1.22092 52.1358 1.75992 52.44L28.2398 67.7282L28.2407 67.7273C28.7742 68.0407 29.3817 68.2059 30.0004 68.2059C30.6192 68.2059 31.2267 68.0407 31.7602 67.7273L58.241 52.4391C58.7789 52.1339 59.2256 51.6906 59.5348 51.155C59.844 50.6194 60.0046 50.0109 59.9999 49.3924V18.816L59.9991 18.8152C60.0037 18.1965 59.8431 17.5878 59.5337 17.0521C59.2243 16.5163 58.7775 16.0729 58.2393 15.7676L31.7586 0.47941V0.478585C31.2255 0.165227 30.6184 0 30 0C29.3817 0 28.7746 0.165227 28.2415 0.478585V0.47941L1.76158 15.7676C1.22317 16.0726 0.776067 16.516 0.466527 17.0518C0.156987 17.5876 -0.00373871 18.1964 0.000985123 18.8152L0.000159432 18.816V49.3924C-0.00578599 50.0111 0.154653 50.62 0.46469 51.1554" fill="#009639"/>
<path d="M21.5219 45.7435C21.5219 46.6466 21.1631 47.5128 20.5244 48.1515C19.8858 48.7901 19.0196 49.1489 18.1164 49.1489C17.2132 49.1489 16.347 48.7901 15.7084 48.1515C15.0697 47.5128 14.7109 46.6466 14.7109 45.7435L14.7118 45.7443L14.7151 22.3673C14.7151 20.5563 16.3153 19.0585 18.5818 19.0585C20.2043 19.0585 22.0773 19.7132 23.2238 21.134L24.2528 22.3656L38.4797 39.3913V22.4623H38.4781C38.4781 22.0151 38.5662 21.5723 38.7373 21.1591C38.9085 20.746 39.1593 20.3705 39.4755 20.0543C39.7917 19.7381 40.1672 19.4873 40.5803 19.3161C40.9935 19.145 41.4363 19.0569 41.8835 19.0569C42.3308 19.0569 42.7736 19.145 43.1868 19.3161C43.5999 19.4873 43.9753 19.7381 44.2916 20.0543C44.6078 20.3705 44.8586 20.746 45.0298 21.1591C45.2009 21.5723 45.289 22.0151 45.289 22.4623H45.2882L45.2849 45.8377C45.2849 47.6487 43.6838 49.1464 41.4182 49.1464C39.7948 49.1464 37.9226 48.4926 36.7762 47.0709L21.5202 28.8137V45.7443L21.5219 45.7435Z" fill="white"/>
</g>
</svg>
