<svg width="55" height="50" viewBox="0 0 55 50" fill="none" xmlns="http://www.w3.org/2000/svg">
<path d="M18.6851 35.2104C18.6851 33.6885 18.2173 32.4352 17.2817 31.4503C16.3462 30.4478 14.7869 29.5523 12.604 28.7645C10.421 27.9589 8.72317 27.2157 7.5104 26.5355C3.47367 24.2974 1.45531 20.9848 1.45531 16.598C1.45531 13.6257 2.33022 11.1817 4.08004 9.26591C5.82989 7.35007 7.68367 6.26679 10.6809 5.90869V0H15.3587V5.90869C18.3732 6.35632 20.7034 7.6813 22.3493 9.88363C23.9953 12.068 24.8182 14.9149 24.8182 18.4243H18.5291C18.5291 16.1684 18.0354 14.3958 17.0479 13.1066C16.0777 11.7996 14.7523 11.146 13.0717 11.146C11.4085 11.146 10.1092 11.6115 9.17362 12.5426C8.23806 13.4735 7.7703 14.8076 7.7703 16.5443C7.7703 18.1022 8.2294 19.3555 9.14762 20.3043C10.0832 21.2355 11.6598 22.1218 13.8774 22.9633C16.095 23.8048 17.8361 24.5838 19.1009 25.3C20.3656 26.0161 21.431 26.8399 22.2973 27.7708C23.1635 28.684 23.8306 29.7405 24.2984 30.9401C24.7662 32.1397 25 33.5453 25 35.1567C25 38.1827 24.0991 40.6358 22.2973 42.5158C20.5129 44.3958 18.3472 45.5329 15.1421 45.873V50H10.6809V45.873C7.25053 45.479 4.60846 44.2077 2.75467 42.0592C0.918227 39.9105 0 37.0636 0 33.5185H6.31499C6.31499 35.7744 6.86072 37.5202 7.95219 38.7557C9.061 39.991 10.6203 40.6089 12.63 40.6089C14.605 40.6089 16.1036 40.1164 17.1258 39.1318C18.1653 38.1469 18.6851 36.8397 18.6851 35.2104Z" fill="#FEB611"/>
<path d="M37.5002 20.8333H33.3335V33.3333H37.5002V20.8333Z" fill="#FEB611" fill-opacity="0.2"/>
<path d="M45.8332 16.6665H41.6665V37.4999H45.8332V16.6665Z" fill="#FEB611" fill-opacity="0.4"/>
<path d="M54.1667 12.5002H50V41.667H54.1667V12.5002Z" fill="#FEB611"/>
</svg>
