<svg width="91" height="32" viewBox="0 0 91 32" fill="none" xmlns="http://www.w3.org/2000/svg">
<path d="M3.37763 16.6921C3.32334 16.8188 3.19668 16.855 2.99764 16.8007C2.79861 16.7283 2.56338 16.6107 2.29196 16.4478C2.03864 16.2669 1.76722 16.0588 1.47771 15.8236C1.1882 15.5703 0.925832 15.3169 0.690604 15.0636C0.473471 14.7922 0.292527 14.5479 0.147771 14.3308C0.0211103 14.1137 -0.0241259 13.9418 0.0120629 13.8151C0.536801 12.9466 1.1882 12.0509 1.96626 11.1281C2.76242 10.2053 3.64 9.30958 4.599 8.44105C5.5761 7.55442 6.60748 6.72208 7.69315 5.94402C8.77881 5.14787 9.87353 4.45123 10.9773 3.85411C12.081 3.257 13.1667 2.78654 14.2343 2.44275C15.3019 2.08086 16.3061 1.89087 17.247 1.87277C17.5727 1.87277 17.8894 1.9542 18.197 2.11705C18.5227 2.2799 18.8031 2.49703 19.0384 2.76845C19.2917 3.03986 19.4907 3.35652 19.6355 3.7184C19.7983 4.0622 19.8797 4.41504 19.8797 4.77693C19.8436 5.41023 19.6264 6.19734 19.2283 7.13825C18.8484 8.07916 18.3508 9.11055 17.7356 10.2324C17.1203 11.3543 16.4237 12.5394 15.6456 13.788C14.8676 15.0365 14.0533 16.285 13.2029 17.5335C12.3525 18.782 11.502 20.0034 10.6516 21.1976C9.81924 22.3919 9.04118 23.4956 8.31741 24.5089C7.86505 25.1422 7.43983 25.7393 7.04175 26.3003C6.64367 26.8431 6.29988 27.3316 6.01037 27.7659C5.72086 28.1821 5.49468 28.5168 5.33183 28.7701C5.16898 29.0235 5.08755 29.1773 5.08755 29.2316L5.06041 29.3401H5.08755C7.62077 27.7116 10.1721 25.7846 12.7415 23.5589C15.329 21.3152 17.7989 18.9087 20.1512 16.3393C22.5215 13.7518 24.7019 11.0738 26.6923 8.30534C28.7008 5.5369 30.4017 2.81368 31.7949 0.135708C31.9216 -0.045236 32.1206 -0.045236 32.392 0.135708C32.6816 0.316652 32.962 0.579021 33.2334 0.922815C33.5049 1.26661 33.731 1.6285 33.912 2.00848C34.0929 2.38846 34.1382 2.67797 34.0477 2.87701C33.3601 4.08934 32.4825 5.42833 31.4149 6.89398C30.3474 8.35963 29.1531 9.87956 27.8322 11.4538C26.5114 13.028 25.1 14.6203 23.5982 16.2307C22.1144 17.8411 20.6035 19.3972 19.0655 20.8991C17.5456 22.3828 16.0347 23.7851 14.5328 25.106C13.031 26.4269 11.6015 27.585 10.2445 28.5802C8.90548 29.5934 7.6841 30.3986 6.58034 30.9958C5.47658 31.5929 4.55376 31.9276 3.81189 32C3.45 31.9819 3.10621 31.8824 2.78051 31.7014C2.45481 31.5205 2.18339 31.2762 1.96626 30.9686C1.74913 30.661 1.58628 30.3082 1.47771 29.9101C1.38724 29.5301 1.37819 29.132 1.45057 28.7159C2.42767 26.7617 3.53143 24.8798 4.76185 23.0704C6.01037 21.261 7.30412 19.4334 8.64311 17.5878C10.0183 15.6698 11.3844 13.7337 12.7415 11.7795C14.0986 9.82527 15.32 7.73537 16.4056 5.50975C16.478 5.38309 16.5504 5.24738 16.6228 5.10263C16.7132 4.95787 16.7404 4.90359 16.7042 4.93978C16.3061 5.01216 15.709 5.27453 14.9128 5.72689C14.1167 6.16115 13.23 6.71303 12.2529 7.38253C11.2939 8.03393 10.2987 8.76675 9.26736 9.581C8.23598 10.3953 7.29507 11.2185 6.44463 12.0509C5.59419 12.8832 4.88851 13.6884 4.32758 14.4665C3.78475 15.2265 3.49524 15.8869 3.45905 16.4478L3.37763 16.6921Z" fill="#FEB611"/>
<path d="M34.392 16.9092C34.3739 17.0178 34.3016 17.1083 34.1749 17.1807C34.0663 17.2349 33.9306 17.2802 33.7678 17.3164C33.6049 17.3345 33.433 17.3435 33.2521 17.3435C33.0892 17.3435 32.9445 17.3164 32.8178 17.2621C33.0712 17.4249 33.3064 17.6149 33.5235 17.8321C33.7406 18.0492 33.9216 18.2935 34.0663 18.5649C34.2111 18.8182 34.3016 19.0806 34.3378 19.352C34.392 19.6234 34.3649 19.8858 34.2563 20.1391C34.184 20.2658 34.1025 20.4105 34.0121 20.5734C33.9216 20.7181 33.8311 20.8719 33.7406 21.0348C33.5416 21.3786 33.3335 21.7495 33.1164 22.1476C32.9173 22.5457 32.7274 22.9347 32.5464 23.3147C32.3655 23.6947 32.2026 24.0565 32.0579 24.4003C31.9312 24.726 31.8498 25.0065 31.8136 25.2417C31.8136 25.2779 31.7955 25.3051 31.7593 25.3232C31.7412 25.3412 31.7231 25.3593 31.705 25.3774H31.895C32.4378 25.1965 32.9626 24.8979 33.4692 24.4818C33.9759 24.0656 34.4644 23.5951 34.9349 23.0704C35.4234 22.5276 35.8848 21.9576 36.3191 21.3605C36.7715 20.7453 37.1967 20.1572 37.5948 19.5963C37.7395 19.4515 37.8481 19.3249 37.9205 19.2163C37.9928 19.1077 38.0652 18.9901 38.1376 18.8634C38.21 18.773 38.3457 18.7549 38.5447 18.8092C38.7438 18.8453 38.9338 18.9268 39.1147 19.0534C39.2956 19.1801 39.4404 19.3339 39.549 19.5148C39.6575 19.6777 39.6575 19.8224 39.549 19.9491L38.7619 21.0348V21.0619C37.9838 22.1295 37.1695 23.188 36.3191 24.2375C35.4868 25.2689 34.5549 26.2007 33.5235 27.0331C33.3607 27.1778 33.1526 27.3407 32.8993 27.5216C32.664 27.6845 32.3926 27.8383 32.085 27.983C31.7955 28.1459 31.4788 28.2725 31.135 28.363C30.7913 28.4716 30.4384 28.5168 30.0765 28.4987C29.208 28.4263 28.5928 28.1187 28.2309 27.5759C27.8871 27.0331 27.7604 26.3545 27.8509 25.5403C27.0367 26.3003 26.2134 26.9607 25.381 27.5216C24.5487 28.0645 23.7525 28.3449 22.9926 28.363C22.305 28.2906 21.7531 28.1006 21.3369 27.793C20.9388 27.4673 20.6403 27.0874 20.4412 26.6531C20.2422 26.2188 20.1246 25.7574 20.0884 25.2689C20.0703 24.7622 20.0884 24.2918 20.1427 23.8575C20.2151 23.4594 20.2965 23.1337 20.387 22.8804C20.5679 22.2109 20.8665 21.4781 21.2826 20.6819C21.6988 19.8858 22.1964 19.0896 22.7754 18.2935C23.3544 17.4973 23.9877 16.7283 24.6753 15.9864C25.381 15.2446 26.1229 14.5841 26.9009 14.0051C27.679 13.4261 28.4661 12.9647 29.2623 12.6209C30.0765 12.2771 30.8817 12.1052 31.6779 12.1052C31.9131 12.1052 32.1393 12.1233 32.3564 12.1595C32.5736 12.1956 32.8088 12.2499 33.0621 12.3223C33.4964 12.4671 33.8221 12.7023 34.0392 13.028C34.2744 13.3356 34.4282 13.7065 34.5006 14.1408C34.5911 14.557 34.6182 15.0093 34.582 15.4979C34.5639 15.9683 34.5006 16.4388 34.392 16.9092ZM31.2165 16.9092C31.3974 16.8188 31.6055 16.8007 31.8407 16.855C32.0941 16.9092 32.3474 17.0088 32.6007 17.1535C32.5102 17.063 32.4831 16.9635 32.5193 16.855C32.5374 16.8007 32.5374 16.7373 32.5193 16.665C32.5193 16.5926 32.5283 16.5202 32.5464 16.4478C32.5645 16.2669 32.5736 16.0769 32.5736 15.8779C32.5736 15.6788 32.5464 15.4979 32.4921 15.335C32.4378 15.1541 32.3474 15.0093 32.2207 14.9008C32.0941 14.7922 31.9222 14.7289 31.705 14.7108C31.0355 14.6927 30.3479 14.937 29.6423 15.4436C28.9366 15.9321 28.258 16.5564 27.6066 17.3164C26.9552 18.0763 26.3581 18.8906 25.8153 19.7591C25.2905 20.6276 24.8744 21.4148 24.5668 22.1204C24.4763 22.3195 24.3858 22.5728 24.2954 22.8804C24.2049 23.1699 24.1416 23.4594 24.1054 23.7489C24.0692 23.948 24.0511 24.138 24.0511 24.3189C24.0511 24.4999 24.0873 24.6537 24.1596 24.7803C24.2501 24.907 24.3768 24.9884 24.5396 25.0246C24.7025 25.0608 24.9287 25.0427 25.2182 24.9703C25.4896 24.8979 25.8334 24.6898 26.2495 24.3461C26.6657 24.0023 27.1 23.6042 27.5523 23.1518C28.0228 22.6814 28.4752 22.1838 28.9094 21.659C29.3618 21.1343 29.7418 20.6638 30.0494 20.2477C30.3208 19.7048 30.5651 19.1801 30.7822 18.6735C31.0174 18.1487 31.1803 17.7054 31.2708 17.3435L31.2165 16.9092Z" fill="#FEB611"/>
<path d="M51.5244 22.5276C51.1806 22.998 50.7282 23.568 50.1673 24.2375C49.6063 24.907 48.9911 25.5584 48.3216 26.1917C47.6522 26.825 46.9646 27.3678 46.2589 27.8202C45.5713 28.2545 44.9199 28.4716 44.3047 28.4716C43.9247 28.4716 43.5628 28.3992 43.219 28.2545C42.8752 28.1278 42.5948 27.9197 42.3776 27.6302C42.1605 27.3407 42.0067 26.9697 41.9162 26.5174C41.8438 26.0469 41.871 25.4951 41.9976 24.8617C42.1243 24.3189 42.2781 23.7851 42.459 23.2604C42.6581 22.7357 42.8933 22.1838 43.1647 21.6047C43.4542 21.0257 43.7799 20.4015 44.1418 19.732C44.5037 19.0444 44.9199 18.2754 45.3903 17.4249C45.6075 17.063 45.7794 16.7283 45.906 16.4207C46.0508 16.095 46.1413 15.8326 46.1775 15.6336L44.8747 16.7464C44.1147 17.3797 43.409 18.013 42.7576 18.6463C42.1243 19.2796 41.4729 19.9762 40.8034 20.7362C40.1882 21.8581 39.6363 23.0071 39.1478 24.1832C38.6592 25.3412 38.2611 26.5174 37.9535 27.7116C37.8812 27.9107 37.6912 28.0011 37.3836 27.983C37.076 27.9649 36.7503 27.8835 36.4065 27.7388C36.0808 27.5759 35.7913 27.3769 35.5379 27.1416C35.2665 26.9064 35.1399 26.6712 35.1579 26.436C35.3208 25.6217 35.5289 24.8346 35.7822 24.0746C36.0536 23.2966 36.3522 22.5366 36.6779 21.7947C37.0036 21.0348 37.3474 20.2929 37.7093 19.5691C38.0892 18.8273 38.4692 18.0854 38.8492 17.3435C39.2835 16.475 39.7087 15.6336 40.1249 14.8193C40.541 13.987 40.912 13.1908 41.2377 12.4309C41.4548 12.3223 41.7172 12.3223 42.0248 12.4309C42.3505 12.5213 42.6581 12.6751 42.9476 12.8923C43.2371 13.1094 43.4904 13.3808 43.7076 13.7065C43.9247 14.0141 44.0604 14.3398 44.1147 14.6836C44.8928 14.0322 45.6799 13.4803 46.476 13.028C47.2722 12.5756 48.0683 12.3223 48.8645 12.268C49.1178 12.268 49.3621 12.3856 49.5973 12.6209C49.8506 12.838 50.0678 13.1094 50.2487 13.4351C50.4296 13.7608 50.5473 14.1137 50.6015 14.4936C50.6558 14.8736 50.6196 15.2084 50.493 15.4979C50.0225 16.4207 49.5611 17.2892 49.1088 18.1035C48.6564 18.8996 48.2674 19.5872 47.9417 20.1662C47.6522 20.6729 47.3807 21.1433 47.1274 21.5776C46.8922 21.9938 46.6751 22.41 46.476 22.8261C46.2951 23.2423 46.1232 23.6675 45.9603 24.1018C45.8156 24.536 45.6799 25.0065 45.5532 25.5131C45.5713 25.477 45.6346 25.4227 45.7432 25.3503H45.716C46.2589 25.0789 46.9284 24.6175 47.7245 23.9661C48.5207 23.3147 49.353 22.428 50.2216 21.3062C50.4568 21.0167 50.6739 20.7362 50.873 20.4648C51.0901 20.1934 51.2982 19.922 51.4972 19.6505L52.0129 18.8634C52.0853 18.773 52.221 18.7549 52.42 18.8092C52.6191 18.8453 52.8 18.9268 52.9629 19.0534C53.1438 19.1801 53.2795 19.3339 53.37 19.5148C53.4786 19.6777 53.4786 19.8224 53.37 19.9491L53.3971 19.8948L51.5515 22.5004L51.5244 22.5276Z" fill="#FEB611"/>
<path d="M55.8057 12.3223C56.0772 12.1956 56.3938 12.2228 56.7557 12.4037C57.1176 12.5666 57.4342 12.8199 57.7057 13.1637C57.9771 13.4894 58.1671 13.8784 58.2756 14.3308C58.3842 14.7651 58.3209 15.1903 58.0856 15.6064C58.1218 15.5703 58.1037 15.6064 58.0314 15.715C57.959 15.8236 57.8595 15.9683 57.7328 16.1493C57.6061 16.3302 57.4614 16.5383 57.2985 16.7735C57.1357 17.0088 56.9909 17.2259 56.8643 17.4249C56.5386 17.8954 56.1767 18.4201 55.7786 18.9991C55.3986 19.5601 55.0096 20.1391 54.6115 20.7362C54.2315 21.3152 53.8606 21.8852 53.4987 22.4461C53.1549 23.0071 52.8563 23.5047 52.603 23.9389C52.3678 24.3732 52.1959 24.726 52.0873 24.9975C51.9788 25.2508 51.9788 25.3774 52.0873 25.3774H52.2773C52.8563 25.1965 53.4263 24.907 53.9873 24.5089C54.5482 24.0927 55.082 23.6223 55.5886 23.0975C56.1133 22.5728 56.62 22.0209 57.1085 21.4419C57.5971 20.8448 58.0675 20.2748 58.5199 19.732L59.0085 19.0806C59.117 18.972 59.2618 18.9539 59.4427 19.0263C59.6237 19.0806 59.7865 19.1891 59.9313 19.352C60.0941 19.4967 60.2117 19.6686 60.2841 19.8677C60.3565 20.0486 60.3384 20.2024 60.2298 20.3291L60.257 20.2748C59.3522 21.4509 58.339 22.6452 57.2171 23.8575C56.0953 25.0698 54.9644 26.1374 53.8244 27.0602C53.6435 27.1869 53.4173 27.3407 53.1459 27.5216C52.8925 27.6845 52.6121 27.8383 52.3045 27.983C51.9969 28.1278 51.6712 28.2454 51.3274 28.3359C50.9836 28.4444 50.6488 28.4987 50.3231 28.4987C49.6174 28.4806 49.147 28.2092 48.9118 27.6845C48.6584 27.1416 48.5951 26.4722 48.7218 25.676C48.8484 25.0608 49.0475 24.4456 49.3189 23.8304L49.2917 23.8575C49.6536 22.9528 50.1693 21.9033 50.8388 20.7091C51.5264 19.5148 52.2321 18.3206 52.9559 17.1264C53.4263 16.3121 53.8787 15.525 54.313 14.7651C54.7653 13.987 55.1453 13.2813 55.4529 12.648L55.8057 12.3223ZM59.9313 4.01696C60.1484 3.98077 60.4017 4.10743 60.6912 4.39695C60.9988 4.66836 61.2793 4.99406 61.5326 5.37404C61.804 5.73593 62.0212 6.10687 62.184 6.48685C62.365 6.84874 62.4374 7.11111 62.4012 7.27396C62.2021 7.7987 61.9759 8.26011 61.7226 8.65818C61.4874 9.05626 61.2431 9.46339 60.9898 9.87956C60.7365 10.2957 60.4741 10.7209 60.2027 11.1552C59.9494 11.5895 59.696 12.0961 59.4427 12.6751C59.2256 12.6209 58.9904 12.4942 58.737 12.2952C58.5018 12.078 58.2847 11.8338 58.0856 11.5623C57.8866 11.2909 57.7238 11.0105 57.5971 10.7209C57.4885 10.4314 57.4523 10.1872 57.4885 9.98812C57.579 9.62624 57.6966 9.22816 57.8414 8.79389C58.0042 8.35963 58.1852 7.90727 58.3842 7.43681C58.5832 6.96635 58.7732 6.48685 58.9542 5.9983C59.1351 5.50975 59.2799 5.0393 59.3884 4.58694L59.9313 4.01696Z" fill="#FEB611"/>
<path d="M66.3827 13.5165C66.1656 13.8603 65.867 14.3308 65.487 14.9279C65.1071 15.525 64.6909 16.1945 64.2385 16.9364C63.8043 17.6602 63.3519 18.4292 62.8814 19.2434C62.411 20.0396 61.9767 20.8176 61.5786 21.5776C61.1806 22.3195 60.8458 23.0071 60.5744 23.6404C60.303 24.2737 60.1401 24.7803 60.0858 25.1603C60.0497 25.2146 60.0316 25.2598 60.0316 25.296C60.0316 25.3322 60.0225 25.3593 60.0044 25.3774H60.1944C60.7192 25.1965 61.2348 24.907 61.7415 24.5089C62.2481 24.0927 62.7367 23.6313 63.2071 23.1247C63.6776 22.5999 64.13 22.0481 64.5642 21.469C64.9985 20.8719 65.4147 20.2929 65.8127 19.732H65.7856C65.8942 19.5691 66.0118 19.4153 66.1384 19.2706C66.2651 19.1077 66.3827 18.9539 66.4913 18.8092C66.5637 18.7006 66.6903 18.6735 66.8713 18.7277C67.0522 18.782 67.2241 18.8725 67.387 18.9991C67.5679 19.1258 67.7036 19.2796 67.7941 19.4606C67.9026 19.6234 67.9207 19.7682 67.8484 19.8948L66.9527 21.1162C66.2108 22.1476 65.4056 23.1971 64.5371 24.2646C63.6866 25.3141 62.7819 26.2369 61.8229 27.0331C61.6601 27.1778 61.452 27.3407 61.1987 27.5216C60.9453 27.6845 60.6649 27.8383 60.3573 27.983C60.0497 28.1278 59.724 28.2454 59.3802 28.3359C59.0364 28.4444 58.6926 28.4987 58.3488 28.4987C57.9507 28.4806 57.625 28.3811 57.3717 28.2002C57.1184 28.0192 56.9193 27.784 56.7746 27.4945C56.6479 27.1869 56.5755 26.8431 56.5574 26.4631C56.5212 26.065 56.5393 25.6308 56.6117 25.1603C56.6479 24.9613 56.6931 24.7532 56.7474 24.536C56.8017 24.3008 56.865 24.0927 56.9374 23.9118C57.4803 22.1023 58.2312 20.3472 59.1902 18.6463C60.1673 16.9273 61.1715 15.2355 62.2029 13.5708L63.6685 11.2909C64.0847 10.6033 64.4918 9.9067 64.8899 9.20102C65.3061 8.47724 65.6951 7.77156 66.057 7.08397C66.437 6.39638 66.7808 5.73593 67.0884 5.10263C67.4141 4.45123 67.6855 3.85411 67.9026 3.31128C68.1922 3.16652 68.5269 3.17557 68.9069 3.33842C69.305 3.48318 69.6578 3.7184 69.9654 4.0441C70.2911 4.3698 70.5354 4.74979 70.6982 5.18405C70.8611 5.60023 70.8611 6.00735 70.6982 6.40543C70.5716 6.67684 70.3544 7.06587 70.0468 7.57252C69.7573 8.07916 69.4135 8.64914 69.0155 9.28244C68.6355 9.91575 68.2283 10.5762 67.7941 11.2638C67.3779 11.9333 66.9798 12.5666 66.5998 13.1637L66.3827 13.5165Z" fill="#FEB611"/>
<path d="M73.6717 13.5165C73.4546 13.8603 73.156 14.3308 72.776 14.9279C72.3961 15.525 71.9799 16.1945 71.5275 16.9364C71.0933 17.6602 70.6409 18.4292 70.1705 19.2434C69.7 20.0396 69.2657 20.8176 68.8677 21.5776C68.4696 22.3195 68.1348 23.0071 67.8634 23.6404C67.592 24.2737 67.4291 24.7803 67.3749 25.1603C67.3387 25.2146 67.3206 25.2598 67.3206 25.296C67.3206 25.3322 67.3115 25.3593 67.2934 25.3774H67.4834C68.0082 25.1965 68.5239 24.907 69.0305 24.5089C69.5371 24.0927 70.0257 23.6313 70.4962 23.1247C70.9666 22.5999 71.419 22.0481 71.8532 21.469C72.2875 20.8719 72.7037 20.2929 73.1018 19.732H73.0746C73.1832 19.5691 73.3008 19.4153 73.4275 19.2706C73.5541 19.1077 73.6717 18.9539 73.7803 18.8092C73.8527 18.7006 73.9793 18.6735 74.1603 18.7277C74.3412 18.782 74.5131 18.8725 74.676 18.9991C74.8569 19.1258 74.9926 19.2796 75.0831 19.4606C75.1917 19.6234 75.2098 19.7682 75.1374 19.8948L74.2417 21.1162C73.4998 22.1476 72.6946 23.1971 71.8261 24.2646C70.9757 25.3141 70.0709 26.2369 69.1119 27.0331C68.9491 27.1778 68.741 27.3407 68.4877 27.5216C68.2344 27.6845 67.9539 27.8383 67.6463 27.983C67.3387 28.1278 67.013 28.2454 66.6692 28.3359C66.3254 28.4444 65.9816 28.4987 65.6378 28.4987C65.2397 28.4806 64.914 28.3811 64.6607 28.2002C64.4074 28.0192 64.2083 27.784 64.0636 27.4945C63.9369 27.1869 63.8645 26.8431 63.8465 26.4631C63.8103 26.065 63.8284 25.6308 63.9007 25.1603C63.9369 24.9613 63.9822 24.7532 64.0364 24.536C64.0907 24.3008 64.1541 24.0927 64.2264 23.9118C64.7693 22.1023 65.5202 20.3472 66.4792 18.6463C67.4563 16.9273 68.4605 15.2355 69.4919 13.5708L70.9576 11.2909C71.3737 10.6033 71.7809 9.9067 72.1789 9.20102C72.5951 8.47724 72.9841 7.77156 73.346 7.08397C73.726 6.39638 74.0698 5.73593 74.3774 5.10263C74.7031 4.45123 74.9745 3.85411 75.1917 3.31128C75.4812 3.16652 75.8159 3.17557 76.1959 3.33842C76.594 3.48318 76.9468 3.7184 77.2544 4.0441C77.5801 4.3698 77.8244 4.74979 77.9872 5.18405C78.1501 5.60023 78.1501 6.00735 77.9872 6.40543C77.8606 6.67684 77.6434 7.06587 77.3358 7.57252C77.0463 8.07916 76.7025 8.64914 76.3045 9.28244C75.9245 9.91575 75.5174 10.5762 75.0831 11.2638C74.6669 11.9333 74.2688 12.5666 73.8889 13.1637L73.6717 13.5165Z" fill="#FEB611"/>
<path d="M85.5477 16.9092C85.5296 17.0178 85.4572 17.1083 85.3305 17.1807C85.222 17.2349 85.0863 17.2802 84.9234 17.3164C84.7606 17.3345 84.5887 17.3435 84.4077 17.3435C84.2449 17.3435 84.1001 17.3164 83.9735 17.2621C84.2268 17.4249 84.462 17.6149 84.6791 17.8321C84.8963 18.0492 85.0772 18.2935 85.222 18.5649C85.3667 18.8182 85.4572 19.0806 85.4934 19.352C85.5477 19.6234 85.5205 19.8858 85.412 20.1391C85.3396 20.2658 85.2582 20.4105 85.1677 20.5734C85.0772 20.7181 84.9868 20.8719 84.8963 21.0348C84.6972 21.3786 84.4892 21.7495 84.272 22.1476C84.073 22.5457 83.883 22.9347 83.702 23.3147C83.5211 23.6947 83.3583 24.0565 83.2135 24.4003C83.0868 24.726 83.0054 25.0065 82.9692 25.2417C82.9692 25.2779 82.9511 25.3051 82.9149 25.3232C82.8969 25.3412 82.8787 25.3593 82.8607 25.3774H83.0506C83.5935 25.1965 84.1182 24.8979 84.6249 24.4818C85.1315 24.0656 85.6201 23.5951 86.0905 23.0704C86.5791 22.5276 87.0405 21.9576 87.4747 21.3605C87.9271 20.7453 88.3523 20.1572 88.7504 19.5963C88.8951 19.4515 89.0037 19.3249 89.0761 19.2163C89.1485 19.1077 89.2208 18.9901 89.2932 18.8634C89.3656 18.773 89.5013 18.7549 89.7004 18.8092C89.8994 18.8453 90.0894 18.9268 90.2703 19.0534C90.4513 19.1801 90.596 19.3339 90.7046 19.5148C90.8132 19.6777 90.8132 19.8224 90.7046 19.9491L89.9175 21.0348V21.0619C89.1394 22.1295 88.3252 23.188 87.4747 24.2375C86.6424 25.2689 85.7105 26.2007 84.6791 27.0331C84.5163 27.1778 84.3082 27.3407 84.0549 27.5216C83.8197 27.6845 83.5482 27.8383 83.2406 27.983C82.9511 28.1459 82.6345 28.2725 82.2907 28.363C81.9469 28.4716 81.594 28.5168 81.2322 28.4987C80.3636 28.4263 79.7484 28.1187 79.3865 27.5759C79.0427 27.0331 78.9161 26.3545 79.0065 25.5403C78.1923 26.3003 77.369 26.9607 76.5367 27.5216C75.7043 28.0645 74.9081 28.3449 74.1482 28.363C73.4606 28.2906 72.9087 28.1006 72.4925 27.793C72.0945 27.4673 71.7959 27.0874 71.5969 26.6531C71.3978 26.2188 71.2802 25.7574 71.244 25.2689C71.2259 24.7622 71.244 24.2918 71.2983 23.8575C71.3707 23.4594 71.4521 23.1337 71.5426 22.8804C71.7235 22.2109 72.0221 21.4781 72.4383 20.6819C72.8544 19.8858 73.352 19.0896 73.9311 18.2935C74.5101 17.4973 75.1434 16.7283 75.831 15.9864C76.5367 15.2446 77.2785 14.5841 78.0566 14.0051C78.8346 13.4261 79.6218 12.9647 80.4179 12.6209C81.2322 12.2771 82.0374 12.1052 82.8335 12.1052C83.0687 12.1052 83.2949 12.1233 83.5121 12.1595C83.7292 12.1956 83.9644 12.2499 84.2177 12.3223C84.652 12.4671 84.9777 12.7023 85.1948 13.028C85.4301 13.3356 85.5839 13.7065 85.6562 14.1408C85.7467 14.557 85.7739 15.0093 85.7377 15.4979C85.7196 15.9683 85.6562 16.4388 85.5477 16.9092ZM82.3721 16.9092C82.553 16.8188 82.7611 16.8007 82.9964 16.855C83.2497 16.9092 83.503 17.0088 83.7563 17.1535C83.6659 17.063 83.6387 16.9635 83.6749 16.855C83.693 16.8007 83.693 16.7373 83.6749 16.665C83.6749 16.5926 83.684 16.5202 83.702 16.4478C83.7201 16.2669 83.7292 16.0769 83.7292 15.8779C83.7292 15.6788 83.702 15.4979 83.6478 15.335C83.5935 15.1541 83.503 15.0093 83.3764 14.9008C83.2497 14.7922 83.0778 14.7289 82.8607 14.7108C82.1912 14.6927 81.5036 14.937 80.7979 15.4436C80.0922 15.9321 79.4137 16.5564 78.7623 17.3164C78.1109 18.0763 77.5137 18.8906 76.9709 19.7591C76.4462 20.6276 76.03 21.4148 75.7224 22.1204C75.6319 22.3195 75.5415 22.5728 75.451 22.8804C75.3605 23.1699 75.2972 23.4594 75.261 23.7489C75.2248 23.948 75.2067 24.138 75.2067 24.3189C75.2067 24.4999 75.2429 24.6537 75.3153 24.7803C75.4058 24.907 75.5324 24.9884 75.6953 25.0246C75.8581 25.0608 76.0843 25.0427 76.3738 24.9703C76.6452 24.8979 76.989 24.6898 77.4052 24.3461C77.8214 24.0023 78.2556 23.6042 78.708 23.1518C79.1784 22.6814 79.6308 22.1838 80.0651 21.659C80.5174 21.1343 80.8974 20.6638 81.205 20.2477C81.4764 19.7048 81.7207 19.1801 81.9378 18.6735C82.1731 18.1487 82.3359 17.7054 82.4264 17.3435L82.3721 16.9092Z" fill="#FEB611"/>
</svg>
