<svg width="73" height="73" viewBox="0 0 73 73" fill="none" xmlns="http://www.w3.org/2000/svg">
<g opacity="0.15">
<path d="M35.2935 0H37.9659C46.0788 0 53.9663 3.29819 61.6283 9.89458C69.2057 17.6467 72.9944 26.5209 72.9944 36.5C72.9944 47.821 68.2247 57.49 58.6909 65.5128C51.7393 70.5024 44.2973 73 36.3647 73C25.9345 73 16.8011 68.8561 8.95868 60.5684C2.98811 53.1657 0 45.6335 0 37.9715V35.2935C0 26.2051 3.74359 17.7369 11.2308 9.88894C11.4112 9.88894 12.3471 9.08835 14.0385 7.48154C21.0802 2.49761 28.1671 0 35.2935 0Z" fill="#3A3A3C"/>
<path d="M1.73633 36.5001C1.73633 46.3947 5.61523 54.9925 13.3674 62.3049C20.2288 68.1853 27.8513 71.1283 36.2292 71.1283H36.6295C47.2345 71.1283 56.2834 66.6687 63.7705 57.7607C68.6699 51.3448 71.1224 44.303 71.1224 36.6354V36.2351C71.1224 27.1467 67.734 19.0338 60.9628 11.9018C53.8365 5.12497 45.6333 1.73657 36.3645 1.73657C25.6694 1.73657 16.6205 6.15108 9.22351 14.9744C4.23393 21.4806 1.73633 28.6577 1.73633 36.5001Z" fill="white"/>
<path d="M7.75224 23.6624H8.01722L22.8563 64.5712H22.721C16.57 61.7184 11.7157 56.9036 8.14689 50.1325C6.09469 45.4981 5.07422 40.9088 5.07422 36.359C5.07986 32.2658 5.97065 28.0318 7.75224 23.6624Z" fill="#3A3A3C"/>
<path d="M36.5 5.07983C44.4326 5.07983 51.4744 7.84242 57.6254 13.3676V13.5029L57.2251 13.3676C54.7275 13.3676 52.991 14.8842 52.01 17.9118V19.1127C52.01 20.8942 53.256 23.6568 55.7536 27.4004C56.9996 29.8078 57.6254 32.39 57.6254 35.1526C57.6254 37.4698 56.5091 41.7941 54.2821 48.1198L52.1453 55.4717C51.9649 55.4717 50.8091 52.1284 48.6667 45.4418L40.6439 21.661H40.7792C43.897 21.661 45.4587 21.2607 45.4587 20.4601V20.0598C45.2783 19.434 44.9682 19.0788 44.5228 18.9886L35.8348 19.3889L27.0058 18.983C26.5604 19.248 26.3349 19.6483 26.3349 20.1839H26.1995C26.1995 21.1649 27.4906 21.6554 30.0784 21.6554L30.7494 21.7907L35.5642 35.2935L28.7423 55.7536H28.6069L17.2465 21.7907V21.6554H17.3818C20.415 21.6554 21.926 21.3002 21.926 20.5842V20.1839C21.926 19.6483 21.6159 19.248 20.9901 18.983L10.8305 19.3833H10.2949V19.1127C11.1857 17.5058 13.283 15.1887 16.5812 12.1611C22.5518 7.44213 29.1933 5.07983 36.5 5.07983Z" fill="#3A3A3C"/>
<path d="M36.9005 39.0371C37.0809 39.0371 38.3269 42.3804 40.6441 49.067L46.9304 66.0485H46.7951C43.3165 67.2099 39.8435 67.785 36.3649 67.785C33.2471 67.785 30.3041 67.3396 27.5415 66.4488L36.9005 39.0371Z" fill="#3A3A3C"/>
<path d="M63.7763 21.3904H64.0413C66.5389 26.38 67.7849 31.4146 67.7849 36.5001C67.7849 45.594 64.2217 53.4364 57.0898 60.0328C55.3984 61.4592 53.7916 62.615 52.275 63.5114H52.1396V63.3761L63.1054 31.4203C63.7312 28.8381 64.0413 26.5604 64.0413 24.604L63.7763 21.3904Z" fill="#3A3A3C"/>
</g>
</svg>
